<?xml version="1.0" encoding="utf-8"?>
<!-- Generator: Adobe Illustrator 23.0.1, SVG Export Plug-In . SVG Version: 6.00 Build 0)  -->
<svg version="1.1" id="Layer_1" xmlns="http://www.w3.org/2000/svg" xmlns:xlink="http://www.w3.org/1999/xlink" x="0px" y="0px"
	 viewBox="0 0 512 512" style="enable-background:new 0 0 512 512;" xml:space="preserve">
<style type="text/css">
	.st0{fill:#FFFFFF;}
</style>
<path class="st0" d="M256.3,417.1c-15.8,0-30.6-6.1-41.9-17.1L18,207.2C6.5,195.9,0,180.7,0,164.4s6.3-31.5,17.9-42.9l9.4-9.3
	C38.8,101,53.9,94.9,69.9,95c16,0.1,31.1,6.5,42.3,17.9l144.3,146.7L400,114.2c11.2-11.5,26.4-17.9,42.5-18
	c16.2-0.1,31.3,6.2,42.8,17.6l9.1,9.2c11.4,11.4,17.7,26.6,17.6,42.7c-0.1,16.1-6.5,31.2-18,42.5l-64,63.3
	c-7.9,7.8-20.5,7.7-28.3-0.2c-7.8-7.9-7.7-20.5,0.2-28.3l64-63.3c3.9-3.8,6-8.9,6-14.2c0-5.4-2.1-10.4-5.9-14.2l-9.1-9.2
	c-3.8-3.8-8.9-5.9-14.3-5.9c-5.4,0-10.4,2.2-14.2,6L270.7,302.1c-3.8,3.8-8.9,5.9-14.2,5.9c0,0,0,0,0,0c-5.4,0-10.5-2.2-14.2-6
	L83.7,141c-3.7-3.8-8.8-5.9-14.1-6c-5.4,0-10.4,2-14.2,5.8l-9.4,9.3c-3.9,3.8-6,8.9-6,14.3c0,5.4,2.2,10.5,6,14.3l196.3,192.8
	c7.7,7.5,20.2,7.5,27.9-0.1L330,313c7.9-7.7,20.6-7.6,28.3,0.3s7.6,20.6-0.3,28.3L298.3,400C287.1,411,272.2,417.1,256.3,417.1
	C256.4,417.1,256.3,417.1,256.3,417.1z"/>
</svg>
